<?xml version="1.0" encoding="UTF-8" standalone="no"?>
<!-- Created with Inkscape (http://www.inkscape.org/) -->

<svg
   xmlns:dc="http://purl.org/dc/elements/1.1/"
   xmlns:cc="http://creativecommons.org/ns#"
   xmlns:rdf="http://www.w3.org/1999/02/22-rdf-syntax-ns#"
   xmlns:svg="http://www.w3.org/2000/svg"
   xmlns="http://www.w3.org/2000/svg"
   xmlns:sodipodi="http://sodipodi.sourceforge.net/DTD/sodipodi-0.dtd"
   xmlns:inkscape="http://www.inkscape.org/namespaces/inkscape"
   width="300mm"
   height="300mm"
   viewBox="0 0 300 300"
   version="1.1"
   id="svg4755"
   inkscape:version="0.92.1 r15371"
   sodipodi:docname="ventana_nota.svg">
  <defs
     id="defs4749" />
  <sodipodi:namedview
     id="base"
     pagecolor="#ffffff"
     bordercolor="#666666"
     borderopacity="1.0"
     inkscape:pageopacity="0.0"
     inkscape:pageshadow="2"
     inkscape:zoom="0.35"
     inkscape:cx="150.34415"
     inkscape:cy="540.3322"
     inkscape:document-units="mm"
     inkscape:current-layer="g4747"
     showgrid="false"
     inkscape:window-width="1366"
     inkscape:window-height="705"
     inkscape:window-x="-8"
     inkscape:window-y="-8"
     inkscape:window-maximized="1"
     units="mm" />
  <metadata
     id="metadata4752">
    <rdf:RDF>
      <cc:Work
         rdf:about="">
        <dc:format>image/svg+xml</dc:format>
        <dc:type
           rdf:resource="http://purl.org/dc/dcmitype/StillImage" />
        <dc:title></dc:title>
      </cc:Work>
    </rdf:RDF>
  </metadata>
  <g
     inkscape:label="Capa 1"
     inkscape:groupmode="layer"
     id="layer1"
     transform="translate(0,2.9999969)">
    <g
       id="g4747"
       transform="matrix(0.55118111,0,0,0.55118111,195.14583,4.7161316)">
      <g
         id="g4788"
         transform="matrix(3.7795275,0,0,5.5159024,421.66395,-442.71493)">
        <path
           inkscape:connector-curvature="0"
           d="m -196.5476,77.723579 h 126.622014 c 4.816173,0 8.693453,4.064428 8.693453,9.113069 v 64.583932 c 0,5.04863 -3.87728,9.11306 -8.693453,9.11306 H -196.5476 c -4.81618,0 -8.69346,-4.06443 -8.69346,-9.11306 V 86.836648 c 0,-5.048641 3.87728,-9.113069 8.69346,-9.113069 z m 63.31101,98.675731 c -2.77177,0 -16.78465,-25.44253 -15.39876,-27.95882 1.38589,-2.5163 29.41164,-2.5163 30.79752,0 1.38589,2.51629 -12.62698,27.95882 -15.39876,27.95882 z"
           style="fill:#000000;fill-opacity:0.22767855;stroke-width:0.27089354"
           id="path4720" />
        <g
           transform="translate(-16.630952,29.80989)"
           id="g4726">
          <path
             sodipodi:type="star"
             style="fill:#8ebbf5;fill-opacity:1;stroke-width:0.26458332;stroke-miterlimit:4;stroke-dasharray:none"
             id="path4722"
             sodipodi:sides="3"
             sodipodi:cx="-116.60564"
             sodipodi:cy="124.26488"
             sodipodi:r1="17.780958"
             sodipodi:r2="8.8904791"
             sodipodi:arg1="1.5707963"
             sodipodi:arg2="2.6179939"
             inkscape:flatsided="true"
             inkscape:rounded="0.09"
             inkscape:randomized="0"
             d="m -116.60564,142.04584 c -2.77177,0 -16.78465,-24.27101 -15.39876,-26.67144 1.38589,-2.40043 29.41164,-2.40043 30.79752,0 1.385893,2.40043 -12.62698,26.67144 -15.39876,26.67144 z"
             inkscape:transform-center-x="-1.4904762e-006"
             inkscape:transform-center-y="4.4452378" />
          <rect
             style="fill:#8ebbf5;fill-opacity:1;stroke-width:0.26458332"
             id="rect4724"
             width="144.00893"
             height="78.997025"
             x="-188.61011"
             y="47.913689"
             rx="8.6934528"
             ry="8.6934528" />
        </g>
      </g>
    </g>
  </g>
</svg>
